Coordinates
version=1
nRows=17
nColumns=23
inDegrees=yes

Units are S.I. units (second, meters, Newtons, ...)
If the header above contains a line with 'inDegrees', this indicates whether rotational values are in degrees (yes) or radians (no).

endheader
time	pelvis_tilt	pelvis_list	pelvis_rotation	pelvis_tx	pelvis_ty	pelvis_tz	hip_flexion_r	hip_adduction_r	hip_rotation_r	knee_angle_r	knee_angle_r_beta	ankle_angle_r	subtalar_angle_r	mtp_angle_r	hip_flexion_l	hip_adduction_l	hip_rotation_l	knee_angle_l	knee_angle_l_beta	ankle_angle_l	subtalar_angle_l	mtp_angle_l
      7.50000000	     -3.73105450	      0.07256563	      3.54221433	      2.40861550	      0.92276983	      1.01108456	     33.87020400	     -5.93616281	     -6.34351639	     89.50502434	      1.56215737	      2.42022243	    -22.50236912	      0.00000000	     -5.09722865	     -1.20894563	     -9.46081692	     28.09951517	      0.49042906	     18.22646073	      6.76455980	      0.00000000
      7.50666667	     -3.71597611	     -0.64754454	      3.37221078	      2.41095509	      0.92718587	      1.01095741	     34.39921161	     -5.48797806	     -7.37202106	     86.32023093	      1.50657224	      3.14605014	    -22.94320267	      0.00000000	     -7.54940786	     -1.87755955	     -9.65027404	     25.78764779	      0.45007936	     14.97619240	      6.55401634	      0.00000000
      7.51333333	     -3.74142086	     -1.24917083	      3.27070475	      2.41331948	      0.93156052	      1.01079162	     34.81253082	     -5.21848257	     -8.50374949	     82.94274279	      1.44762395	      3.90462522	    -23.25036078	      0.00000000	     -9.94375124	     -2.23266199	     -9.06930317	     23.30609206	      0.40676804	     11.08868867	      4.81619229	      0.00000000
      7.52000000	     -3.95349435	     -1.97503541	      3.04935423	      2.41566277	      0.93543133	      1.01094385	     35.32580477	     -4.73177564	     -9.67631214	     79.37717654	      1.38539308	      4.64380738	    -23.47290453	      0.00000000	    -11.84280148	     -2.92287506	     -9.45268680	     21.44036695	      0.37420500	      7.42771326	      4.39416892	      0.00000000
      7.52666667	     -4.27006367	     -2.62839541	      2.75097217	      2.41796806	      0.93903580	      1.01131950	     35.83566995	     -4.22773083	    -10.79823730	     75.63667740	      1.32010906	      5.44470165	    -23.41395405	      0.00000000	    -13.51934706	     -3.46571991	     -9.68414505	     19.72194262	      0.34421283	      3.62402992	      3.39907464	      0.00000000
      7.53333333	     -4.55392306	     -3.32462453	      2.31890617	      2.42030752	      0.94242012	      1.01202068	     36.17853604	     -3.56924647	    -11.91968569	     71.69337004	      1.25128536	      6.24527609	    -23.14860866	      0.00000000	    -15.03177002	     -4.13965230	    -10.56234533	     18.45229145	      0.32205324	      0.20873751	      3.05979804	      0.00000000
      7.54000000	     -5.02216832	     -3.89959288	      1.92858301	      2.42239158	      0.94549066	      1.01285350	     36.60791214	     -2.96872752	    -13.00955594	     67.57755081	      1.17945076	      7.08424970	    -22.41980054	      0.00000000	    -16.15255156	     -4.65084828	    -11.06782699	     17.47444461	      0.30498659	     -3.18959145	      2.32974746	      0.00000000
      7.54666667	     -5.50733335	     -4.44912111	      1.41793998	      2.42445169	      0.94822560	      1.01399691	     36.92533515	     -2.27082361	    -14.05597402	     63.28783529	      1.10458110	      7.90990418	    -21.40002607	      0.00000000	    -17.03419793	     -5.23094789	    -12.15002702	     17.03412516	      0.29730157	     -5.98465261	      2.11712053	      0.00000000
      7.55333333	     -6.03471238	     -4.94756741	      0.88217915	      2.42639267	      0.95060951	      1.01532673	     37.17667270	     -1.50466336	    -15.03997522	     58.84926003	      1.02711335	      8.75509463	    -19.91101678	      0.00000000	    -17.71569402	     -5.77188710	    -13.20372498	     16.94113570	      0.29567860	     -8.29504838	      1.89834994	      0.00000000
      7.56000000	     -6.51474076	     -5.35420021	      0.32028954	      2.42816418	      0.95273478	      1.01684277	     37.25228967	     -0.74188026	    -16.01194051	     54.26391374	      0.94708396	      9.63356372	    -17.79547546	      0.00000000	    -18.26337467	     -6.26358084	    -14.27927698	     17.25873695	      0.30122178	    -10.19149052	      1.78079603	      0.00000000
      7.56666667	     -7.04970965	     -5.70720531	     -0.26606891	      2.42976628	      0.95436606	      1.01855777	     37.29839947	      0.08354300	    -16.93426902	     49.60534678	      0.86577663	     10.57567144	    -15.18072487	      0.00000000	    -18.57384092	     -6.76600184	    -15.41599744	     18.02118789	      0.31452906	    -11.44830885	      1.80317444	      0.00000000
      7.57333333	     -7.59433792	     -6.01224000	     -0.84980376	      2.43114331	      0.95552806	      1.02045275	     37.26827241	      0.98846125	    -17.76564770	     44.87654764	      0.78324351	     11.45802051	    -12.25942447	      0.00000000	    -18.69963146	     -7.27659420	    -16.45201853	     19.19637774	      0.33504000	    -12.18205173	      1.78641530	      0.00000000
      7.58000000	     -8.13071205	     -6.25061893	     -1.41303444	      2.43228982	      0.95619350	      1.02245802	     37.17646549	      1.93861423	    -18.48030118	     40.16809116	      0.70106544	     12.33971789	     -9.12043473	      0.00000000	    -18.67027941	     -7.76204795	    -17.28502555	     20.74126260	      0.36200332	    -12.42483787	      1.68240896	      0.00000000
      7.58666667	     -8.66960226	     -6.41022515	     -1.97295440	      2.43319670	      0.95628747	      1.02458672	     37.06108308	      2.93719694	    -18.97613532	     35.54793281	      0.62042847	     13.21165807	     -5.92784418	      0.00000000	    -18.48582942	     -8.19937368	    -17.92448589	     22.62357373	      0.39485585	    -12.35347267	      1.38800769	      0.00000000
      7.59333333	     -9.19793890	     -6.49855804	     -2.47857238	      2.43381646	      0.95590919	      1.02671478	     36.89901202	      4.02333126	    -19.01977494	     30.97996839	      0.54070245	     13.83726615	     -3.36769927	      0.00000000	    -18.14407478	     -8.53699025	    -18.07316301	     24.77437193	      0.43239436	    -12.07842610	      0.50925388	      0.00000000
      7.60000000	     -9.66543302	     -6.50985513	     -2.98658527	      2.43423402	      0.95501837	      1.02880244	     36.68685384	      5.10621068	    -18.67699285	     26.67901857	      0.46563672	     14.45326921	     -1.04649584	      0.00000000	    -17.72591589	     -8.76810549	    -18.01060472	     27.17305389	      0.47425926	    -11.62564907	     -0.59726593	      0.00000000
      7.60666667	    -10.02870040	     -6.44377909	     -3.41373340	      2.43452425	      0.95375615	      1.03070567	     36.35402443	      6.09572534	    -18.03408654	     22.66471361	      0.39557388	     15.07225508	      0.86841470	      0.00000000	    -17.26116869	     -8.89360029	    -17.66503887	     29.77979236	      0.51975543	    -11.01855608	     -1.83263543	      0.00000000
